<?xml version="1.0" encoding="iso-8859-1"?>
<!-- Uploaded to: SVG Repo, www.svgrepo.com, Generator: SVG Repo Mixer Tools -->
<!DOCTYPE svg PUBLIC "-//W3C//DTD SVG 1.1//EN" "http://www.w3.org/Graphics/SVG/1.1/DTD/svg11.dtd">
<svg fill="#000000" height="800px" width="800px" version="1.1" id="Capa_1" xmlns="http://www.w3.org/2000/svg" xmlns:xlink="http://www.w3.org/1999/xlink" 
	 viewBox="0 0 51.266 51.266" xml:space="preserve">
<g>
	<path d="M6.116,20.427c3.599-3.93,3.536-3.987,7.901-0.923c0.503,0.353,1.016,0.692,1.516,1.05
		c7.268,5.215,7.35,5.259,11.416-2.381c1.259-2.365,2.131-1.889,3.462-0.248c1.548,1.908,3.151,3.776,4.803,5.595
		c1.613,1.777,3.703,2.122,5.498,0.645c3.474-2.858,6.767-5.946,9.992-9.087c0.553-0.538,0.394-1.808,0.563-2.74
		c-1.112-0.136-2.502-0.758-3.283-0.313c-2.112,1.205-4.14,2.682-5.887,4.376c-4.995,4.844-4.238,3.368-7.74-0.561
		c-0.136-0.152-0.261-0.316-0.388-0.477c-6.476-8.19-6.568-8.237-11.257,0.966c-1.161,2.279-1.977,1.846-3.555,0.655
		c-2.286-1.725-4.68-3.322-7.129-4.807c-2.214-1.343-4.41-1.076-6.014,1.04c-2.1,2.772-4.08,5.641-5.953,8.57
		c-0.262,0.41,0.381,1.399,0.868,2.965C3.105,22.963,4.797,21.867,6.116,20.427z"/>
	<path d="M47.868,28.958c-2.521,2.073-4.94,4.299-7.19,6.667c-1.472,1.549-2.832,1.643-4.159,0.206
		c-1.655-1.791-3.13-3.753-4.615-5.693c-2.594-3.388-3.995-3.368-6.353,0.251c-0.667,1.024-1.142,2.172-1.735,3.246
		c-1.701,3.079-2.151,3.199-4.899,0.773c-1.684-1.486-3.07-3.313-4.773-4.774c-2.208-1.894-4.028-1.826-5.803,0.419
		c-2.281,2.887-4.305,5.984-6.313,9.073c-0.348,0.535-0.285,2.038-0.048,2.127c0.815,0.306,1.918,0.476,2.671,0.148
		c0.877-0.382,1.574-1.284,2.222-2.065c1.559-1.88,3.043-3.821,4.559-5.738c2.003,1.628,3.97,3.304,6.021,4.868
		c1.6,1.22,3.306,2.301,5.016,3.48c1.16-0.727,2.182-1.099,2.796-1.819c0.777-0.911,1.242-2.094,1.806-3.178
		c1.567-3.009,1.452-2.905,3.714-0.665c1.865,1.848,3.836,3.765,6.125,4.942c1.354,0.696,4.028,0.713,5.047-0.178
		c3.21-2.809,5.983-6.135,8.753-9.407c0.441-0.521,0.346-2.217-0.127-2.605C50.003,28.564,48.43,28.496,47.868,28.958z"/>
</g>
</svg>