<?xml version="1.0" encoding="iso-8859-1"?>
<!-- Uploaded to: SVG Repo, www.svgrepo.com, Generator: SVG Repo Mixer Tools -->
<!DOCTYPE svg PUBLIC "-//W3C//DTD SVG 1.1//EN" "http://www.w3.org/Graphics/SVG/1.1/DTD/svg11.dtd">
<svg fill="#000000" version="1.1" id="Capa_1" xmlns="http://www.w3.org/2000/svg" xmlns:xlink="http://www.w3.org/1999/xlink" 
	 width="800px" height="800px" viewBox="0 0 32.001 32.001"
	 xml:space="preserve">
<g>
	<path d="M19.385,3.031c0.377-0.188,1.1-2.749-3.46-3.021C11.364-0.26,4.957,4.808,5.069,9.093c0.978-0.76,1.89-0.148,1.939,0.378
		c0.051,0.527-5.084,6.055-0.781,9.464c0.796-4.885,2.134-3.763,2.315-3.111c0.181,0.651-1.751,7.578,2.013,7.761
		c-0.507-2.315,0.992-3.455,2.077-3.455c1.086,0,4.671,2.388,3.113,11.87c4.198-2.896,3.098-9.646,3.098-9.646
		s0.991,1.287,2.4,0.347c-1.445-1.99-1.119-2.569-1.119-2.569s1.881,1.882,3.221,0.978c-2.244-1.736-2.063-3.364-2.117-4.857
		c-0.055-1.494,1.356,0.107,2.551,0.271c4.197,0.427,3.173-2.812,2.985-2.813c-1.088-0.014-3.411,0.986-3.854-0.506
		c-0.67-2.246,2.474-1.833,3.862-1.089c0.053,0.028,0.828-1.098,0.709-1.715C27.347,9.69,26.638,8.55,24.105,9.22
		c-1.393,0.368-2.64-0.54-2.679-0.579c-0.217-0.217,3.126-0.865,3.139-1.12S25.638,0.752,19.385,3.031z"/>
</g>
</svg>