<?xml version="1.0" encoding="iso-8859-1"?>
<!-- Uploaded to: SVG Repo, www.svgrepo.com, Generator: SVG Repo Mixer Tools -->
<!DOCTYPE svg PUBLIC "-//W3C//DTD SVG 1.1//EN" "http://www.w3.org/Graphics/SVG/1.1/DTD/svg11.dtd">
<svg fill="#000000" version="1.1" id="Capa_1" xmlns="http://www.w3.org/2000/svg" xmlns:xlink="http://www.w3.org/1999/xlink" 
	 width="800px" height="800px" viewBox="0 0 31.998 31.998"
	 xml:space="preserve">
<g>
	<path d="M29.512,13.723h1.656V11.63c0.361-0.41,0.588-0.943,0.588-1.533c0-1.288-1.045-2.331-2.332-2.331s-2.331,1.043-2.331,2.331
		c0,0.063,0.015,0.12,0.019,0.183h-7.795V6.292h-0.027c0.008-0.093,0.027-0.182,0.027-0.277c-0.002-1.821-1.477-3.297-3.299-3.297
		c-0.006,0-0.012,0.002-0.018,0.002s-0.012-0.002-0.018-0.002c-1.82,0-3.297,1.477-3.297,3.297c0,0.097,0.02,0.186,0.027,0.277
		h-0.027v3.986H4.89c0.005-0.062,0.019-0.119,0.019-0.183c0-1.288-1.044-2.331-2.332-2.331c-1.287,0-2.33,1.043-2.33,2.331
		c0,0.59,0.227,1.123,0.588,1.533v2.093H2.49c-0.98,2.201-2.762,6.808-2.455,10.585c0.42,5.167,5.671,5.167,8.023,4.872
		c2.352-0.294,5.936-3.149,5.125-7.267c-0.553-2.803-3.682-6.266-5.623-8.19h5.125h6.629h5.125c-1.941,1.927-5.069,5.39-5.621,8.19
		c-0.812,4.115,2.771,6.973,5.123,7.267c2.354,0.295,7.604,0.295,8.021-4.872C32.271,20.528,30.49,15.924,29.512,13.723z
		 M10.998,21.87c0.043,2.186-6.553,4.201-8.021,2.646c-1.309-1.382,0.756-9.102,1.229-10.795h1.82
		C7.375,15.421,10.965,20.099,10.998,21.87z M29.025,24.518c-1.471,1.556-8.064-0.462-8.023-2.646
		c0.035-1.772,3.624-6.45,4.975-8.148h1.818C28.27,15.416,30.332,23.136,29.025,24.518z"/>
</g>
</svg>