<?xml version="1.0" encoding="iso-8859-1"?>
<!-- Uploaded to: SVG Repo, www.svgrepo.com, Generator: SVG Repo Mixer Tools -->
<!DOCTYPE svg PUBLIC "-//W3C//DTD SVG 1.1//EN" "http://www.w3.org/Graphics/SVG/1.1/DTD/svg11.dtd">
<svg fill="#000000" version="1.1" id="Capa_1" xmlns="http://www.w3.org/2000/svg" xmlns:xlink="http://www.w3.org/1999/xlink" 
	 width="800px" height="800px" viewBox="0 0 32.024 32.024"
	 xml:space="preserve">
<g>
	<path d="M0.328,25.705h20.479c0.078-0.971,0.084-1.092,0.063-1.213c0,0,0.128-1.58,1.84-3.742c0.364,0.146,3.336,0.564,4.247,1.736
		c0.833,1.002,3.308-1.271,3.289-2.307c-0.021-1.033-1.529-1.566-1.66-2.539c-0.238-1.765,0.098-2.715-0.508-3.984
		c-0.606-1.271-1.467-1.25-1.699-1.387c0.117-2.031,1.558-4.422,5.646-3.559c-4.693-4.104-8.738,0.83-8.499,3.772
		c-0.71-2.2,0.332-5.41,3.928-5.817c-5.156-1.445-7.149,1.833-6.817,6.267c0,1.915-6.346,6.194-13.237,5.082
		C-1.735,16.26,0.039,23.147,0.328,25.705z M25.05,15.535c0-0.523,0.404-0.742,1.071-0.742s1.186,0.315,1.186,0.839
		c0,0.524-0.562,0.786-1.229,0.786C25.412,16.417,25.05,16.057,25.05,15.535z"/>
</g>
</svg>